# xmcd
#
# Track frame offsets: 
#        225
#        13395
#        29480
#        43475
#        62062
#        78389
#        91035
#        103852
#        118570
#        133090
#        149065
#        161511
#        174064
#        187924
#
# Disc length: 2727 seconds
#
# Revision: 0
# Processed by: cddbd v1.4PL0 Copyright (c) Steve Scherf et al.
# Submitted via: ExactAudioCopy v0.90b4
#
DISCID=c10aa40e
DTITLE=Rheinstone Cowboys - Rheinstone Cowboys
DYEAR=1998
DGENRE=Country
TTITLE0=kein parkplatz
TTITLE1=wenn mer kein glueck hat
TTITLE2=cowboys kuessen sowieso
TTITLE3=lonesome blue
TTITLE4=och ene cowboy muss ens dusche
TTITLE5=eisen im feuer
TTITLE6=old kentucky
TTITLE7=jeder ist doch irgendwo en trucker
TTITLE8=ming mafia
TTITLE9=die rose von bensberg
TTITLE10=von kueste zu kueste
TTITLE11=bleib noch hier
TTITLE12=un dann draeum ich vun virginia
TTITLE13=hueck weed joot
EXTD=
EXTT0=
EXTT1=
EXTT2=
EXTT3=
EXTT4=
EXTT5=
EXTT6=
EXTT7=
EXTT8=
EXTT9=
EXTT10=
EXTT11=
EXTT12=
EXTT13=
PLAYORDER=
